<?xml version="1.0" standalone="no"?>
<!DOCTYPE svg PUBLIC "-//W3C//DTD SVG 20010904//EN"
 "http://www.w3.org/TR/2001/REC-SVG-20010904/DTD/svg10.dtd">
<svg version="1.0" xmlns="http://www.w3.org/2000/svg"
 width="225.000000pt" height="225.000000pt" viewBox="0 0 225.000000 225.000000"
 preserveAspectRatio="xMidYMid meet">
<metadata>
Created by potrace 1.16, written by Peter Selinger 2001-2019
</metadata>
<g transform="translate(0.000000,225.000000) scale(0.100000,-0.100000)"
fill="#000000" stroke="none">
<path d="M1055 1936 c-80 -16 -161 -43 -225 -76 -113 -57 -245 -175 -309 -275
l-31 -49 0 42 c0 54 -16 88 -49 102 -33 13 -75 0 -90 -29 -7 -11 -11 -85 -11
-175 0 -210 -16 -196 223 -196 162 0 186 2 200 18 28 30 30 65 7 95 -20 25
-27 27 -96 27 -41 0 -74 2 -74 5 0 21 92 144 145 194 120 112 255 169 420 178
127 6 222 -13 330 -66 238 -118 378 -343 378 -606 0 -63 -6 -124 -17 -165 -63
-234 -237 -414 -471 -486 -93 -29 -288 -26 -380 4 -117 39 -184 81 -276 172
-74 73 -93 99 -134 183 -52 107 -75 128 -123 111 -14 -5 -33 -21 -42 -36 -13
-25 -13 -32 3 -80 40 -114 132 -242 244 -338 69 -60 231 -142 328 -166 97 -25
294 -25 390 0 155 40 332 147 421 253 87 104 129 179 170 300 38 113 45 311
15 435 -71 299 -298 534 -590 609 -99 26 -265 33 -356 15z"/>
<path d="M1075 1475 c-25 -24 -25 -25 -25 -232 0 -174 3 -212 16 -231 21 -30
325 -182 363 -182 20 0 36 9 50 26 47 59 20 91 -148 174 l-131 64 0 179 c0
176 0 178 -25 202 -13 14 -36 25 -50 25 -14 0 -37 -11 -50 -25z"/>
</g>
</svg>
