<?xml version="1.0" standalone="no"?>
<!DOCTYPE svg PUBLIC "-//W3C//DTD SVG 20010904//EN"
 "http://www.w3.org/TR/2001/REC-SVG-20010904/DTD/svg10.dtd">
<svg version="1.0" xmlns="http://www.w3.org/2000/svg"
 width="225.000000pt" height="225.000000pt" viewBox="0 0 225.000000 225.000000"
 preserveAspectRatio="xMidYMid meet">
<metadata>
Created by potrace 1.16, written by Peter Selinger 2001-2019
</metadata>
<g transform="translate(0.000000,225.000000) scale(0.100000,-0.100000)"
fill="#000000" stroke="none">
<path d="M776 2149 c-140 -33 -269 -153 -316 -294 -65 -196 23 -438 193 -530
32 -17 37 -24 37 -55 0 -34 -1 -36 -52 -48 -193 -45 -353 -201 -412 -402 -45
-151 -63 -467 -31 -529 32 -63 165 -122 351 -156 174 -32 544 -30 703 3 l34 7
-59 39 -59 38 -48 -17 c-57 -21 -110 -11 -144 27 -41 47 -96 151 -101 193 -5
49 21 102 60 124 22 11 23 17 23 119 l-1 108 -38 35 c-31 28 -39 43 -43 82 -5
41 -1 55 37 121 24 42 55 87 70 101 36 35 95 43 142 21 35 -17 36 -17 83 13
45 29 46 30 24 42 -12 6 -50 19 -83 29 -56 15 -61 19 -64 47 -3 27 3 34 47 63
239 153 281 476 89 685 -59 65 -114 100 -199 126 -65 20 -175 24 -243 8z"/>
<path d="M1468 1183 l-3 -67 -46 -11 c-65 -17 -145 -63 -196 -113 l-44 -43
-57 35 -57 35 -32 -57 -32 -56 59 -33 59 -34 -16 -42 c-20 -55 -20 -198 0
-253 l15 -41 -58 -34 -59 -34 26 -45 c14 -25 29 -49 34 -54 4 -5 32 5 64 23
l56 32 46 -46 c52 -50 147 -102 205 -111 l38 -7 0 -68 0 -69 65 0 65 0 0 69 0
68 38 7 c58 9 152 59 209 110 l52 47 49 -31 c27 -16 53 -30 58 -30 8 0 64 92
64 104 0 3 -25 19 -55 36 -30 17 -55 32 -55 33 0 1 7 27 15 57 19 70 19 150 1
220 -8 30 -12 58 -9 62 2 5 21 17 41 28 69 36 68 32 33 93 l-32 56 -57 -34
-57 -33 -45 42 c-59 56 -123 92 -190 109 l-55 14 -3 67 -3 66 -64 0 -64 0 -3
-67z m184 -209 c61 -20 142 -93 176 -158 24 -45 27 -62 27 -146 0 -86 -3 -100
-29 -148 -34 -60 -85 -111 -148 -144 -36 -19 -58 -23 -138 -23 -111 0 -162 19
-229 86 -65 65 -96 139 -96 229 0 66 5 85 33 143 76 154 235 217 404 161z"/>
</g>
</svg>
