<?xml version="1.0" standalone="no"?>
<!DOCTYPE svg PUBLIC "-//W3C//DTD SVG 20010904//EN"
 "http://www.w3.org/TR/2001/REC-SVG-20010904/DTD/svg10.dtd">
<svg version="1.0" xmlns="http://www.w3.org/2000/svg"
 width="512.000000pt" height="512.000000pt" viewBox="0 0 512.000000 512.000000"
 preserveAspectRatio="xMidYMid meet">
<metadata>
Created by potrace 1.16, written by Peter Selinger 2001-2019
</metadata>
<g transform="translate(0.000000,512.000000) scale(0.100000,-0.100000)"
fill="#000000" stroke="none">
<path d="M985 4257 c-55 -22 -84 -48 -110 -100 -29 -60 -33 -137 -10 -195 11
-26 222 -244 698 -719 l682 -683 -682 -682 c-476 -476 -687 -694 -698 -720 -8
-21 -15 -62 -15 -92 0 -153 136 -248 295 -205 34 9 137 107 728 697 l687 687
688 -687 c743 -742 703 -708 813 -708 32 0 64 9 100 28 43 22 59 38 81 81 33
62 37 139 13 199 -11 26 -222 244 -698 719 l-682 683 687 687 c742 744 708
704 708 814 0 32 -9 64 -28 100 -22 43 -38 59 -81 81 -62 33 -139 37 -199 13
-26 -11 -244 -222 -719 -698 l-683 -682 -682 682 c-476 476 -694 687 -720 698
-43 18 -130 19 -173 2z"/>
</g>
</svg>
