<?xml version="1.0" standalone="no"?>
<!DOCTYPE svg PUBLIC "-//W3C//DTD SVG 20010904//EN"
 "http://www.w3.org/TR/2001/REC-SVG-20010904/DTD/svg10.dtd">
<svg version="1.0" xmlns="http://www.w3.org/2000/svg"
 width="200.000000pt" height="200.000000pt" viewBox="0 0 200.000000 200.000000"
 preserveAspectRatio="xMidYMid meet">
<metadata>
Created by potrace 1.16, written by Peter Selinger 2001-2019
</metadata>
<g transform="translate(0.000000,200.000000) scale(0.100000,-0.100000)"
fill="#000000" stroke="none">
<path d="M950 1790 c-18 -18 -20 -33 -20 -168 0 -137 2 -150 20 -167 29 -26
79 -24 102 4 16 20 18 42 18 165 0 136 -1 144 -23 164 -29 27 -71 28 -97 2z"/>
<path d="M1508 1443 c-113 -115 -124 -139 -80 -183 34 -34 50 -36 91 -16 39
21 190 182 197 213 10 39 -24 77 -72 81 -37 3 -43 -1 -136 -95z"/>
<path d="M275 1505 c-25 -24 -31 -49 -19 -80 4 -9 54 -54 111 -101 86 -68 111
-84 139 -84 68 0 98 73 52 124 -13 13 -63 56 -112 95 -100 79 -130 88 -171 46z"/>
<path d="M883 1335 c-145 -32 -287 -141 -357 -274 -56 -107 -66 -170 -66 -438
0 -222 -1 -232 -20 -238 -33 -10 -60 -54 -60 -97 0 -30 7 -46 29 -69 l29 -29
552 0 c598 0 593 0 618 55 25 55 2 124 -47 140 -17 5 -19 24 -24 258 -6 270
-12 310 -63 416 -38 78 -151 189 -234 229 -117 57 -237 73 -357 47z m279 -168
c87 -43 142 -98 185 -185 l38 -76 3 -258 3 -258 -391 0 -391 0 3 263 c3 260 3
262 30 319 47 100 137 180 241 214 26 9 76 13 133 11 74 -2 100 -8 146 -30z"/>
<path d="M941 1099 c-124 -24 -226 -144 -219 -257 3 -43 5 -47 30 -50 30 -4
42 12 51 71 8 54 42 103 90 132 46 27 86 32 163 21 56 -8 81 7 69 43 -10 33
-109 55 -184 40z"/>
<path d="M57 880 c-34 -27 -37 -80 -7 -110 18 -18 33 -20 160 -20 138 0 141 1
167 26 20 20 24 31 19 57 -12 57 -23 62 -174 65 -128 3 -139 2 -165 -18z"/>
<path d="M1643 890 c-47 -19 -56 -78 -18 -115 23 -24 29 -25 165 -25 127 0
142 2 160 20 30 30 27 83 -6 109 -24 19 -40 21 -153 20 -69 0 -136 -4 -148 -9z"/>
</g>
</svg>
