<?xml version="1.0" standalone="no"?>
<!DOCTYPE svg PUBLIC "-//W3C//DTD SVG 20010904//EN"
 "http://www.w3.org/TR/2001/REC-SVG-20010904/DTD/svg10.dtd">
<svg version="1.0" xmlns="http://www.w3.org/2000/svg"
 width="225.000000pt" height="224.000000pt" viewBox="0 0 225.000000 224.000000"
 preserveAspectRatio="xMidYMid meet">
<metadata>
Created by potrace 1.16, written by Peter Selinger 2001-2019
</metadata>
<g transform="translate(0.000000,224.000000) scale(0.100000,-0.100000)"
fill="#000000" stroke="none">
<path d="M995 2229 c-162 -18 -365 -94 -506 -190 -81 -55 -198 -166 -260 -248
-66 -87 -152 -264 -185 -376 -40 -141 -52 -306 -31 -450 17 -121 34 -165 66
-165 40 0 45 24 26 120 -24 121 -16 339 15 455 26 96 92 239 149 324 259 382
752 545 1191 396 391 -133 673 -496 697 -897 5 -76 10 -101 24 -114 23 -21 57
-10 65 23 9 34 -11 201 -36 297 -90 352 -371 652 -724 772 -147 51 -336 71
-491 53z"/>
<path d="M995 1995 c-368 -68 -678 -347 -765 -689 -34 -135 -35 -220 -5 -406
29 -179 28 -242 -4 -314 -10 -23 -25 -47 -34 -55 -31 -25 -15 -81 23 -81 24 0
66 48 91 105 33 73 36 189 10 342 -27 155 -27 276 -1 379 90 350 405 607 795
649 129 14 322 -31 439 -102 245 -149 412 -466 451 -858 8 -79 17 -95 51 -95
39 0 44 26 29 141 -34 260 -112 479 -229 643 -57 80 -176 193 -253 239 -168
102 -392 140 -598 102z"/>
<path d="M1035 1764 c-115 -19 -266 -78 -284 -111 -7 -15 -6 -25 5 -41 19 -28
24 -28 98 7 91 44 171 61 281 61 177 0 309 -54 431 -175 192 -191 261 -550
205 -1065 -11 -101 -15 -172 -9 -182 10 -21 51 -24 66 -5 18 21 45 334 44 517
-1 396 -86 655 -274 824 -68 62 -188 127 -278 152 -57 15 -232 26 -285 18z"/>
<path d="M1006 1544 c-192 -46 -321 -181 -363 -378 -13 -61 -13 -100 -3 -281
10 -163 10 -237 1 -333 -13 -133 -8 -156 33 -150 47 7 51 37 51 418 l0 355 32
67 c69 147 178 217 362 232 36 3 68 11 73 18 11 19 10 42 -4 56 -16 16 -108
14 -182 -4z"/>
<path d="M1322 1488 c-25 -25 -13 -53 38 -91 171 -128 250 -406 221 -781 -10
-136 -42 -352 -70 -477 -12 -51 -6 -67 27 -76 37 -9 47 11 76 165 71 374 74
697 10 912 -20 70 -84 194 -125 243 -41 50 -126 117 -148 117 -9 0 -22 -5 -29
-12z"/>
<path d="M510 1418 c-81 -141 -108 -337 -76 -551 9 -59 16 -133 16 -165 -1
-125 -45 -253 -115 -331 -36 -40 -44 -68 -23 -89 21 -21 45 -13 86 32 51 55
98 147 117 228 19 82 19 239 -1 369 -26 170 -6 309 63 447 40 81 38 104 -10
110 -22 3 -30 -5 -57 -50z"/>
<path d="M1051 1345 c-95 -27 -146 -68 -181 -147 -31 -70 -34 -147 -20 -420
15 -281 9 -362 -35 -495 -14 -43 -44 -108 -66 -146 -43 -72 -45 -101 -8 -112
30 -10 62 25 108 119 73 149 86 212 86 441 0 110 -2 274 -5 365 -5 161 -4 166
20 215 20 41 35 55 80 78 46 24 64 28 113 25 70 -5 101 -26 143 -96 49 -81 59
-148 58 -392 -1 -234 -17 -389 -60 -575 -39 -170 -40 -181 -15 -194 41 -22 56
0 84 116 47 195 62 299 77 539 11 176 1 364 -24 445 -59 194 -190 280 -355
234z"/>
<path d="M1106 1137 c-17 -12 -17 -19 -2 -136 19 -144 20 -363 2 -511 -7 -58
-11 -111 -8 -118 7 -21 54 -27 67 -8 55 75 46 732 -11 773 -22 16 -26 16 -48
0z"/>
<path d="M2012 758 c-8 -8 -12 -49 -12 -118 0 -112 6 -130 47 -130 33 0 43 29
43 130 0 50 -5 100 -10 111 -12 21 -50 25 -68 7z"/>
<path d="M550 233 c-58 -90 -64 -129 -23 -139 31 -8 43 5 106 109 44 76 43 99
-6 105 -23 3 -33 -6 -77 -75z"/>
<path d="M1052 267 c-14 -17 -54 -196 -48 -213 3 -7 14 -18 25 -24 34 -18 55
15 76 122 15 80 16 99 6 112 -16 19 -45 21 -59 3z"/>
</g>
</svg>
