<?xml version="1.0" standalone="no"?>
<!DOCTYPE svg PUBLIC "-//W3C//DTD SVG 20010904//EN"
 "http://www.w3.org/TR/2001/REC-SVG-20010904/DTD/svg10.dtd">
<svg version="1.0" xmlns="http://www.w3.org/2000/svg"
 width="184.000000pt" height="169.000000pt" viewBox="0 0 184.000000 169.000000"
 preserveAspectRatio="xMidYMid meet">
<metadata>
Created by potrace 1.16, written by Peter Selinger 2001-2019
</metadata>
<g transform="translate(0.000000,169.000000) scale(0.100000,-0.100000)"
fill="#000000" stroke="none">
<path d="M1053 1325 c-101 -44 -93 -197 13 -234 52 -18 88 -9 131 34 28 28 33
40 33 83 0 58 -25 97 -76 118 -41 17 -60 17 -101 -1z"/>
<path d="M365 1298 c-40 -36 -65 -167 -65 -353 0 -213 7 -224 193 -345 88 -58
97 -67 97 -94 0 -17 3 -48 6 -69 l7 -37 139 0 139 0 -5 33 c-3 17 -10 82 -16
142 -7 69 -18 121 -29 140 -9 16 -58 66 -109 110 -51 44 -113 108 -140 143
-33 45 -56 65 -76 69 l-29 6 7 114 c6 112 6 114 -18 138 -31 31 -67 32 -101 3z
m73 -30 c13 -13 7 -232 -8 -279 -15 -49 72 -217 113 -219 5 0 0 12 -11 28 -11
15 -34 60 -52 99 -27 60 -30 76 -20 88 22 27 47 16 88 -39 23 -30 76 -85 118
-122 148 -132 148 -130 160 -292 l7 -93 -99 3 -99 3 -5 50 c-3 28 -9 56 -14
64 -5 7 -59 46 -120 86 -152 99 -156 107 -156 298 0 138 18 274 41 320 11 20
40 22 57 5z"/>
<path d="M1314 1295 c-24 -24 -24 -26 -18 -138 l7 -114 -29 -6 c-20 -4 -43
-24 -76 -69 -27 -35 -89 -99 -140 -143 -51 -44 -100 -94 -110 -110 -16 -29
-51 -289 -41 -307 2 -5 64 -8 137 -8 l134 0 6 31 c3 17 6 48 6 68 0 36 3 39
98 101 185 121 191 133 192 343 0 247 -40 377 -116 377 -14 0 -36 -11 -50 -25z
m82 -26 c24 -39 44 -184 44 -323 0 -194 -4 -202 -156 -301 -61 -40 -115 -79
-120 -86 -5 -8 -11 -36 -14 -64 l-5 -50 -99 -3 -99 -3 7 93 c12 162 12 160
160 292 42 37 95 92 118 122 41 55 66 66 88 39 10 -12 7 -28 -20 -88 -18 -39
-41 -84 -52 -99 -23 -33 -16 -36 20 -7 37 29 93 164 82 198 -15 47 -21 266 -8
279 15 15 45 15 54 1z"/>
<path d="M888 1179 c-36 -20 -17 -93 39 -151 l36 -37 -26 -6 c-34 -9 -60 7
-94 57 -23 34 -36 44 -61 46 -28 3 -40 -4 -78 -42 -38 -37 -45 -50 -42 -77 2
-23 10 -34 26 -40 20 -8 29 -4 53 22 l28 30 31 -34 c39 -45 79 -61 140 -55 56
6 111 41 136 89 21 41 11 64 -35 83 -39 15 -81 58 -81 82 0 16 -28 44 -43 44
-7 0 -20 -5 -29 -11z"/>
</g>
</svg>
