<?xml version="1.0" standalone="no"?>
<!DOCTYPE svg PUBLIC "-//W3C//DTD SVG 20010904//EN"
 "http://www.w3.org/TR/2001/REC-SVG-20010904/DTD/svg10.dtd">
<svg version="1.0" xmlns="http://www.w3.org/2000/svg"
 width="260.000000pt" height="280.000000pt" viewBox="0 0 260.000000 280.000000"
 preserveAspectRatio="xMidYMid meet">
<metadata>
Created by potrace 1.16, written by Peter Selinger 2001-2019
</metadata>
<g transform="translate(0.000000,280.000000) scale(0.100000,-0.100000)"
fill="#000000" stroke="none">
<path d="M1470 1957 c-107 -37 -103 -198 6 -236 52 -18 88 -9 131 34 28 28 33
40 33 83 0 58 -25 97 -76 118 -39 17 -48 17 -94 1z"/>
<path d="M776 1928 c-41 -37 -66 -173 -66 -355 1 -210 7 -222 193 -343 88 -58
97 -67 97 -94 0 -17 3 -48 6 -68 l7 -38 133 0 c73 0 135 3 137 8 10 18 -25
278 -41 307 -10 16 -59 66 -110 110 -51 44 -113 108 -140 143 -33 45 -56 65
-76 69 l-29 6 7 114 c6 112 6 114 -18 138 -31 31 -67 32 -100 3z m72 -30 c13
-13 7 -232 -8 -279 -15 -49 72 -217 113 -219 5 0 0 12 -11 28 -11 15 -34 60
-52 99 -27 60 -30 76 -20 88 22 27 47 16 88 -39 23 -30 76 -85 118 -122 148
-132 148 -130 160 -292 l7 -93 -99 3 -99 3 -3 50 c-2 27 -9 56 -15 64 -7 8
-61 47 -122 87 -151 98 -155 106 -155 300 0 139 20 284 44 323 9 14 39 14 54
-1z"/>
<path d="M1724 1925 c-24 -24 -24 -26 -18 -138 l7 -114 -29 -6 c-20 -4 -43
-24 -76 -69 -27 -35 -89 -99 -140 -143 -51 -44 -100 -94 -110 -110 -16 -29
-51 -289 -41 -307 2 -5 64 -8 137 -8 l133 0 7 38 c3 20 6 51 6 68 0 27 9 36
98 94 185 121 191 133 192 343 0 247 -40 377 -116 377 -14 0 -36 -11 -50 -25z
m82 -26 c24 -39 44 -184 44 -323 0 -194 -4 -202 -156 -301 -61 -40 -115 -79
-120 -86 -5 -8 -11 -36 -14 -64 l-5 -50 -99 -3 -99 -3 7 93 c12 162 12 160
160 292 42 37 95 92 118 122 41 55 66 66 88 39 11 -13 6 -30 -24 -98 -21 -45
-45 -90 -53 -99 -9 -10 -12 -18 -7 -18 42 2 129 169 114 219 -14 45 -20 267
-7 280 14 14 44 14 53 0z"/>
<path d="M1298 1809 c-36 -20 -17 -93 39 -151 l36 -37 -26 -6 c-34 -9 -60 7
-94 57 -23 34 -36 44 -61 46 -28 3 -40 -4 -78 -42 -38 -37 -45 -50 -42 -77 2
-23 10 -34 26 -40 20 -8 29 -4 53 22 l28 30 31 -34 c39 -45 79 -61 140 -55 56
6 111 41 136 89 21 41 12 60 -43 89 -32 17 -54 37 -65 60 -30 61 -44 70 -80
49z"/>
</g>
</svg>
