<?xml version="1.0" standalone="no"?>
<!DOCTYPE svg PUBLIC "-//W3C//DTD SVG 20010904//EN"
 "http://www.w3.org/TR/2001/REC-SVG-20010904/DTD/svg10.dtd">
<svg version="1.0" xmlns="http://www.w3.org/2000/svg"
 width="225.000000pt" height="225.000000pt" viewBox="0 0 225.000000 225.000000"
 preserveAspectRatio="xMidYMid meet">
<metadata>
Created by potrace 1.16, written by Peter Selinger 2001-2019
</metadata>
<g transform="translate(0.000000,225.000000) scale(0.100000,-0.100000)"
fill="#000000" stroke="none">
<path d="M998 2185 c-140 -23 -271 -74 -395 -151 -72 -45 -77 -51 -73 -88 2
-18 148 -264 178 -298 22 -26 41 -23 133 26 107 57 183 76 301 76 177 0 314
-56 439 -180 129 -127 189 -269 189 -445 0 -176 -60 -317 -190 -446 -124 -123
-261 -179 -438 -179 -118 0 -194 19 -301 76 -46 24 -91 44 -101 44 -23 0 -34
-15 -135 -178 -75 -122 -86 -146 -78 -165 24 -52 269 -170 422 -203 271 -59
574 -3 811 151 105 68 273 240 334 343 55 93 108 226 133 334 22 99 22 346 0
444 -50 221 -151 399 -314 555 -247 235 -583 340 -915 284z"/>
<path d="M274 1542 c-18 -11 -274 -402 -274 -417 0 -15 256 -406 274 -417 6
-4 97 -8 203 -8 180 0 193 1 203 19 15 30 14 32 -50 130 -33 50 -60 94 -60 96
0 3 166 5 369 5 238 0 380 4 398 11 60 23 113 99 113 164 0 49 -32 108 -77
142 l-36 28 -384 3 c-211 1 -383 5 -383 7 0 2 27 46 60 96 64 98 65 100 50
130 -10 18 -23 19 -203 19 -106 0 -197 -4 -203 -8z"/>
</g>
</svg>
