<?xml version="1.0" standalone="no"?>
<!DOCTYPE svg PUBLIC "-//W3C//DTD SVG 20010904//EN"
 "http://www.w3.org/TR/2001/REC-SVG-20010904/DTD/svg10.dtd">
<svg version="1.0" xmlns="http://www.w3.org/2000/svg"
 width="219.000000pt" height="230.000000pt" viewBox="0 0 219.000000 230.000000"
 preserveAspectRatio="xMidYMid meet">
<metadata>
Created by potrace 1.16, written by Peter Selinger 2001-2019
</metadata>
<g transform="translate(0.000000,230.000000) scale(0.100000,-0.100000)"
fill="#000000" stroke="none">
<path d="M667 2155 c-73 -15 -195 -66 -239 -100 -69 -52 -111 -80 -120 -77 -5
1 -7 -2 -4 -7 3 -5 -1 -14 -10 -21 -8 -7 -13 -19 -10 -26 3 -8 0 -11 -8 -8
-13 5 -67 -62 -96 -121 -8 -16 -19 -33 -23 -36 -15 -11 -57 -146 -67 -215 -5
-38 -10 -215 -10 -394 0 -358 2 -369 63 -414 28 -20 40 -21 420 -21 389 0 497
4 497 17 0 9 89 38 117 38 13 0 23 4 23 10 0 5 -8 7 -17 3 -14 -4 -14 -2 2 9
76 55 99 63 200 69 l100 5 -100 2 -99 2 64 65 c51 51 71 65 95 65 22 0 26 3
15 9 -8 6 -18 7 -22 5 -5 -3 3 11 17 32 14 20 25 41 25 46 0 5 9 7 19 3 16 -5
18 -2 14 14 -5 21 8 25 97 34 19 2 2 5 -39 5 -66 2 -72 4 -65 20 4 9 7 30 7
45 0 17 3 24 7 17 8 -13 19 25 25 83 1 17 6 53 10 80 8 52 -2 200 -14 193 -4
-3 -7 12 -8 32 -2 44 -40 135 -53 127 -6 -3 -7 0 -4 8 5 15 -44 104 -78 142
-10 11 -28 31 -40 45 -25 28 -91 81 -150 120 -20 13 -34 28 -32 32 3 4 -2 5
-10 2 -9 -3 -36 4 -61 16 -24 12 -50 18 -56 14 -7 -4 -9 -3 -5 4 19 31 -261
51 -377 27z m197 -331 c15 -14 20 -33 17 -59 -1 -13 58 -36 72 -28 6 3 7 1 3
-5 -4 -7 -1 -12 7 -12 8 0 22 -11 31 -25 9 -14 21 -23 26 -20 5 3 12 0 16 -6
4 -8 3 -9 -4 -5 -16 10 -15 6 10 -50 18 -40 22 -73 26 -184 l4 -135 39 -37
c29 -27 39 -45 39 -68 l0 -30 -177 -1 c-98 0 -244 0 -325 0 -81 -1 -151 2
-157 5 -9 6 -6 33 6 66 4 8 5 19 4 25 -2 5 1 7 5 2 4 -4 20 5 36 20 27 26 28
29 28 134 0 138 13 199 55 254 18 24 30 47 27 51 -4 4 -1 4 6 0 6 -4 12 -2 12
3 0 6 3 10 8 10 4 -1 21 4 38 10 22 9 33 21 37 40 3 16 13 36 22 45 21 20 69
21 89 0z"/>
</g>
</svg>
