<?xml version="1.0" standalone="no"?>
<!DOCTYPE svg PUBLIC "-//W3C//DTD SVG 20010904//EN"
 "http://www.w3.org/TR/2001/REC-SVG-20010904/DTD/svg10.dtd">
<svg version="1.0" xmlns="http://www.w3.org/2000/svg"
 width="225.000000pt" height="225.000000pt" viewBox="0 0 225.000000 225.000000"
 preserveAspectRatio="xMidYMid meet">
<metadata>
Created by potrace 1.16, written by Peter Selinger 2001-2019
</metadata>
<g transform="translate(0.000000,225.000000) scale(0.100000,-0.100000)"
fill="#000000" stroke="none">
<path d="M955 2046 c-361 -70 -640 -331 -737 -687 -33 -121 -33 -347 0 -468
90 -333 340 -583 673 -673 121 -33 347 -33 468 0 333 90 583 340 673 673 33
121 33 347 0 468 -90 331 -341 583 -667 671 -103 28 -309 36 -410 16z m344
-96 c115 -23 269 -96 359 -170 191 -156 312 -410 312 -655 0 -173 -68 -372
-175 -513 l-48 -64 -40 79 c-58 112 -182 235 -292 288 l-81 38 48 45 c28 26
62 72 81 111 29 59 32 74 32 156 0 76 -4 99 -27 148 -38 80 -114 158 -191 193
-54 25 -74 29 -152 29 -78 0 -98 -4 -152 -29 -77 -35 -153 -113 -191 -193 -23
-49 -27 -72 -27 -148 0 -82 3 -97 32 -156 19 -39 53 -85 81 -111 l48 -45 -81
-38 c-110 -53 -234 -176 -292 -288 l-40 -79 -48 64 c-194 256 -227 595 -86
882 88 179 208 299 388 387 173 86 352 108 542 69z m-64 -424 c50 -21 121 -91
147 -144 28 -58 30 -167 4 -225 -81 -185 -330 -228 -465 -82 -119 129 -101
303 41 418 68 55 186 69 273 33z m24 -651 c167 -40 330 -183 392 -344 l19 -50
-38 -31 c-20 -17 -83 -54 -138 -81 -239 -118 -499 -118 -738 0 -55 27 -118 64
-138 81 l-38 31 19 50 c61 160 225 304 394 345 72 17 189 17 266 -1z"/>
</g>
</svg>
