<?xml version="1.0" standalone="no"?>
<!DOCTYPE svg PUBLIC "-//W3C//DTD SVG 20010904//EN"
 "http://www.w3.org/TR/2001/REC-SVG-20010904/DTD/svg10.dtd">
<svg version="1.0" xmlns="http://www.w3.org/2000/svg"
 width="500.000000pt" height="500.000000pt" viewBox="0 0 500.000000 500.000000"
 preserveAspectRatio="xMidYMid meet">
<metadata>
Created by potrace 1.16, written by Peter Selinger 2001-2019
</metadata>
<g transform="translate(0.000000,500.000000) scale(0.100000,-0.100000)"
fill="#000000" stroke="none">
<path d="M2413 3716 c-384 -74 -678 -342 -788 -721 -36 -120 -44 -300 -21
-432 91 -520 564 -880 1086 -824 174 19 308 67 450 162 527 353 600 1094 151
1539 -128 127 -282 215 -458 261 -101 27 -317 34 -420 15z m328 -61 c375 -65
671 -342 760 -711 25 -104 30 -284 10 -379 -87 -419 -409 -718 -824 -766 -105
-12 -197 -6 -314 21 -346 80 -610 346 -700 708 -26 102 -23 322 5 430 45 173
133 323 263 448 90 86 146 124 253 175 169 79 367 106 547 74z"/>
<path d="M2940 3256 c-6 -8 -21 -16 -33 -18 -13 -2 -21 -10 -19 -17 2 -8 -16
-34 -39 -57 l-43 -44 85 -87 c46 -48 101 -102 121 -121 21 -19 35 -38 32 -43
-3 -5 0 -9 7 -9 7 0 23 -9 35 -21 l22 -21 76 72 c42 40 76 77 76 82 0 10 -58
68 -68 68 -3 0 10 -16 29 -36 l34 -35 -75 -69 -75 -69 -145 144 -145 145 48
48 c26 26 45 51 42 55 -3 4 -2 5 2 2 3 -3 17 5 30 17 l24 22 75 -75 c45 -43
74 -66 71 -54 -26 94 -31 106 -54 111 -12 4 -30 3 -39 0 -8 -3 -22 1 -30 9
-19 19 -28 19 -44 1z"/>
<path d="M3090 3247 c0 -1 9 -30 19 -64 13 -42 15 -63 8 -63 -6 0 7 -18 28
-40 21 -22 42 -37 46 -32 16 18 40 133 30 149 -7 13 -131 60 -131 50z"/>
<path d="M2290 3211 c-134 -44 -199 -144 -171 -263 21 -91 58 -125 206 -188
44 -18 86 -38 93 -43 8 -7 12 -51 12 -156 l1 -146 34 37 c18 20 39 55 45 78 6
23 14 39 17 36 9 -9 -17 -98 -38 -127 -29 -42 -95 -69 -165 -69 -71 0 -151 22
-188 51 -25 20 -26 20 -26 1 0 -14 15 -26 53 -43 44 -20 68 -24 160 -24 l107
0 0 -52 0 -53 135 0 c73 0 158 5 187 11 158 33 234 139 197 272 -19 70 -70
111 -178 144 -9 2 6 14 35 27 85 40 131 116 122 201 -13 114 -108 155 -358
155 l-140 0 0 -102 1 -103 44 -27 45 -27 0 121 0 121 95 -6 c142 -8 200 -45
212 -135 16 -123 -56 -202 -198 -215 -42 -4 -48 -2 -63 24 -22 37 -80 76 -186
123 -156 71 -190 105 -190 197 0 66 25 111 79 143 47 27 151 26 216 -3 55 -24
55 -24 55 -10 0 33 -188 71 -250 50z m472 -575 c46 -22 66 -45 84 -93 29 -82
6 -184 -50 -225 -36 -26 -131 -48 -208 -48 l-68 0 0 70 c0 64 3 73 35 115 39
51 50 95 42 164 l-6 47 67 -6 c37 -4 83 -14 104 -24z"/>
<path d="M2895 3179 c-27 -27 -39 -47 -37 -62 5 -31 221 -247 247 -247 26 0
105 79 105 106 0 11 -45 64 -113 132 -130 130 -142 134 -202 71z"/>
</g>
</svg>
