<?xml version="1.0" standalone="no"?>
<!DOCTYPE svg PUBLIC "-//W3C//DTD SVG 20010904//EN"
 "http://www.w3.org/TR/2001/REC-SVG-20010904/DTD/svg10.dtd">
<svg version="1.0" xmlns="http://www.w3.org/2000/svg"
 width="227.000000pt" height="222.000000pt" viewBox="0 0 227.000000 222.000000"
 preserveAspectRatio="xMidYMid meet">
<metadata>
Created by potrace 1.16, written by Peter Selinger 2001-2019
</metadata>
<g transform="translate(0.000000,222.000000) scale(0.100000,-0.100000)"
fill="#000000" stroke="none">
<path d="M805 2209 c-342 -43 -642 -288 -753 -614 -37 -111 -47 -176 -45 -315
1 -159 21 -248 83 -379 149 -311 446 -511 785 -528 185 -9 358 33 516 125 l65
39 265 -239 c145 -132 281 -251 302 -265 71 -49 175 -29 217 40 27 44 34 86
20 135 -9 37 -42 70 -295 298 l-285 256 26 42 c105 169 155 387 134 579 -15
131 -34 198 -90 314 -138 284 -405 475 -720 513 -95 11 -125 11 -225 -1z m344
-234 c83 -28 169 -77 249 -143 102 -83 201 -258 228 -402 71 -373 -153 -730
-522 -831 -66 -18 -97 -21 -208 -17 -116 4 -141 8 -214 36 -288 108 -472 372
-472 676 0 116 17 198 60 292 96 211 274 356 505 410 98 23 271 13 374 -21z"/>
</g>
</svg>
