<?xml version="1.0" standalone="no"?>
<!DOCTYPE svg PUBLIC "-//W3C//DTD SVG 20010904//EN"
 "http://www.w3.org/TR/2001/REC-SVG-20010904/DTD/svg10.dtd">
<svg version="1.0" xmlns="http://www.w3.org/2000/svg"
 width="128.000000pt" height="128.000000pt" viewBox="0 0 128.000000 128.000000"
 preserveAspectRatio="xMidYMid meet">
<metadata>
Created by potrace 1.16, written by Peter Selinger 2001-2019
</metadata>
<g transform="translate(0.000000,128.000000) scale(0.100000,-0.100000)"
fill="#000000" stroke="none">
<path d="M463 1250 c-179 -38 -292 -232 -239 -413 18 -61 77 -144 119 -166 15
-8 27 -17 27 -20 0 -4 -22 -14 -49 -24 -133 -47 -258 -189 -305 -346 -22 -74
-22 -249 -1 -257 31 -12 45 15 45 90 0 135 46 251 136 346 92 96 202 143 339
143 75 1 111 -7 218 -46 l37 -14 -21 -19 c-12 -10 -33 -41 -47 -69 -23 -43
-27 -63 -27 -135 0 -73 4 -92 27 -136 54 -103 147 -158 268 -158 61 0 84 5
125 26 110 57 165 146 165 268 0 90 -27 155 -86 212 -88 84 -228 108 -331 57
-51 -25 -52 -25 -57 -5 -3 14 -22 28 -56 41 -44 17 -65 35 -41 35 20 0 96 89
120 140 28 63 34 164 13 237 -24 81 -122 181 -200 203 -56 15 -132 20 -179 10z
m172 -79 c173 -79 210 -307 70 -430 -109 -95 -249 -90 -352 12 -102 103 -107
243 -12 352 69 79 202 108 294 66z m443 -637 c52 -21 90 -60 118 -119 55 -115
6 -248 -112 -305 -38 -19 -57 -22 -113 -18 -110 8 -187 75 -212 184 -22 96 33
209 126 254 49 24 141 26 193 4z"/>
<path d="M960 416 l0 -66 -64 0 c-48 0 -65 -4 -70 -15 -13 -34 4 -45 70 -45
l64 0 0 -66 0 -65 28 3 c26 3 27 6 30 65 l3 62 62 3 c59 3 62 4 62 28 0 24 -3
25 -62 28 l-62 3 -3 62 c-3 59 -4 62 -30 65 l-28 3 0 -65z"/>
</g>
</svg>
